{
	"asset":{
		"generator":"Khronos glTF Blender I/O v5.0.21",
		"version":"2.0"
	},
	"extensionsUsed":[
		"KHR_materials_specular"
	],
	"scene":0,
	"scenes":[
		{
			"name":"Scene",
			"nodes":[
				12
			]
		}
	],
	"nodes":[
		{
			"name":"BushBare1",
			"rotation":[
				-0.7112096548080444,
				0.1656663417816162,
				-0.14587178826332092,
				0.6674256324768066
			],
			"scale":[
				228.77227783203125,
				407.02496337890625,
				407.0250244140625
			],
			"translation":[
				83.41708374023438,
				19.092689514160156,
				-203.3446807861328
			]
		},
		{
			"name":"Plane",
			"rotation":[
				-0.70710688829422,
				0,
				0,
				0.7071066498756409
			],
			"scale":[
				913.4328002929688,
				913.4326782226562,
				913.4326782226562
			]
		},
		{
			"mesh":0,
			"name":"SnowTree1_SnowBranchCircle_0"
		},
		{
			"mesh":1,
			"name":"SnowTree1_Trunk_0"
		},
		{
			"children":[
				2,
				3
			],
			"name":"SnowTree1",
			"rotation":[
				-0.70710688829422,
				0,
				0,
				0.7071066498756409
			],
			"scale":[
				100,
				99.99999237060547,
				99.99999237060547
			],
			"translation":[
				-213.4175262451172,
				0,
				275.6688537597656
			]
		},
		{
			"mesh":2,
			"name":"SnowTree1.001_SnowBranchCircle_0"
		},
		{
			"children":[
				5
			],
			"name":"SnowTree1.001",
			"rotation":[
				-0.70710688829422,
				0,
				0,
				0.7071066498756409
			],
			"scale":[
				100,
				99.99999237060547,
				99.99999237060547
			],
			"translation":[
				226.86936950683594,
				0,
				238.13880920410156
			]
		},
		{
			"mesh":3,
			"name":"SnowTree2_SnowBranchCircle_0"
		},
		{
			"mesh":4,
			"name":"SnowTree2_Trunk_0"
		},
		{
			"children":[
				7,
				8
			],
			"name":"SnowTree2",
			"rotation":[
				-0.70710688829422,
				0,
				0,
				0.7071066498756409
			],
			"scale":[
				100,
				99.99999237060547,
				99.99999237060547
			],
			"translation":[
				-91.91923522949219,
				0,
				-318.345458984375
			]
		},
		{
			"children":[
				0,
				1,
				4,
				6,
				9
			],
			"name":"RootNode"
		},
		{
			"children":[
				10
			],
			"name":"1bbfb09f1ba044f8be2f301e64b4725a.fbx",
			"rotation":[
				0.70710688829422,
				0,
				0,
				0.7071066498756409
			],
			"scale":[
				0.009999999776482582,
				0.010000000707805157,
				0.010000000707805157
			]
		},
		{
			"children":[
				11
			],
			"name":"Sketchfab_model",
			"rotation":[
				-0.70710688829422,
				0,
				0,
				0.7071066498756409
			]
		}
	],
	"materials":[
		{
			"alphaMode":"BLEND",
			"doubleSided":true,
			"extensions":{
				"KHR_materials_specular":{
					"specularFactor":0
				}
			},
			"name":"SnowBranchCircle",
			"pbrMetallicRoughness":{
				"baseColorTexture":{
					"index":0
				},
				"metallicFactor":0
			}
		},
		{
			"doubleSided":true,
			"name":"Trunk",
			"normalTexture":{
				"index":1
			},
			"pbrMetallicRoughness":{
				"baseColorFactor":[
					0.11945857852697372,
					0.08974393457174301,
					0.05597030743956566,
					1
				],
				"metallicFactor":0
			}
		}
	],
	"meshes":[
		{
			"name":"SnowTree1_SnowBranchCircle_0",
			"primitives":[
				{
					"attributes":{
						"POSITION":0,
						"NORMAL":1,
						"TEXCOORD_0":2
					},
					"indices":3,
					"material":0
				}
			]
		},
		{
			"name":"SnowTree1_Trunk_0",
			"primitives":[
				{
					"attributes":{
						"POSITION":4,
						"NORMAL":5,
						"TEXCOORD_0":6
					},
					"indices":7,
					"material":1
				}
			]
		},
		{
			"name":"SnowTree1.001_SnowBranchCircle_0",
			"primitives":[
				{
					"attributes":{
						"POSITION":8,
						"NORMAL":9,
						"TEXCOORD_0":10
					},
					"indices":11,
					"material":0
				}
			]
		},
		{
			"name":"SnowTree2_SnowBranchCircle_0",
			"primitives":[
				{
					"attributes":{
						"POSITION":12,
						"NORMAL":13,
						"TEXCOORD_0":14
					},
					"indices":11,
					"material":0
				}
			]
		},
		{
			"name":"SnowTree2_Trunk_0",
			"primitives":[
				{
					"attributes":{
						"POSITION":15,
						"NORMAL":16,
						"TEXCOORD_0":17
					},
					"indices":18,
					"material":1
				}
			]
		}
	],
	"textures":[
		{
			"sampler":0,
			"source":0
		},
		{
			"sampler":0,
			"source":1
		}
	],
	"images":[
		{
			"mimeType":"image/png",
			"name":"SnowBranchCircle_baseColor",
			"uri":"SnowBranchCircle_baseColor.png"
		},
		{
			"mimeType":"image/png",
			"name":"Trunk_normal",
			"uri":"Trunk_normal.png"
		}
	],
	"accessors":[
		{
			"bufferView":0,
			"componentType":5126,
			"count":468,
			"max":[
				1.8446598052978516,
				1.9100886583328247,
				5.243776321411133
			],
			"min":[
				-2.3525848388671875,
				-2.4299678802490234,
				0.4329046905040741
			],
			"type":"VEC3"
		},
		{
			"bufferView":1,
			"componentType":5126,
			"count":468,
			"type":"VEC3"
		},
		{
			"bufferView":2,
			"componentType":5126,
			"count":468,
			"type":"VEC2"
		},
		{
			"bufferView":3,
			"componentType":5123,
			"count":468,
			"type":"SCALAR"
		},
		{
			"bufferView":4,
			"componentType":5126,
			"count":56,
			"max":[
				0.18751239776611328,
				0.06560657918453217,
				4.64586067199707
			],
			"min":[
				-0.12982463836669922,
				-0.21352997422218323,
				0
			],
			"type":"VEC3"
		},
		{
			"bufferView":5,
			"componentType":5126,
			"count":56,
			"type":"VEC3"
		},
		{
			"bufferView":6,
			"componentType":5126,
			"count":56,
			"type":"VEC2"
		},
		{
			"bufferView":7,
			"componentType":5123,
			"count":252,
			"type":"SCALAR"
		},
		{
			"bufferView":8,
			"componentType":5126,
			"count":432,
			"max":[
				0.7714128494262695,
				1.196254014968872,
				2.930816173553467
			],
			"min":[
				-1.470881462097168,
				-1.10406494140625,
				-0.30328893661499023
			],
			"type":"VEC3"
		},
		{
			"bufferView":9,
			"componentType":5126,
			"count":432,
			"type":"VEC3"
		},
		{
			"bufferView":10,
			"componentType":5126,
			"count":432,
			"type":"VEC2"
		},
		{
			"bufferView":11,
			"componentType":5123,
			"count":432,
			"type":"SCALAR"
		},
		{
			"bufferView":12,
			"componentType":5126,
			"count":432,
			"max":[
				2.9794795513153076,
				2.74953031539917,
				6.878963470458984
			],
			"min":[
				-2.3689322471618652,
				-2.3689637184143066,
				0.45683759450912476
			],
			"type":"VEC3"
		},
		{
			"bufferView":13,
			"componentType":5126,
			"count":432,
			"type":"VEC3"
		},
		{
			"bufferView":14,
			"componentType":5126,
			"count":432,
			"type":"VEC2"
		},
		{
			"bufferView":15,
			"componentType":5126,
			"count":504,
			"max":[
				1.6573753356933594,
				1.947825312614441,
				7.108460903167725
			],
			"min":[
				-1.8502130508422852,
				-0.9636651873588562,
				-0.09610919654369354
			],
			"type":"VEC3"
		},
		{
			"bufferView":16,
			"componentType":5126,
			"count":504,
			"type":"VEC3"
		},
		{
			"bufferView":17,
			"componentType":5126,
			"count":504,
			"type":"VEC2"
		},
		{
			"bufferView":18,
			"componentType":5123,
			"count":2052,
			"type":"SCALAR"
		}
	],
	"bufferViews":[
		{
			"buffer":0,
			"byteLength":5616,
			"byteOffset":0,
			"target":34962
		},
		{
			"buffer":0,
			"byteLength":5616,
			"byteOffset":5616,
			"target":34962
		},
		{
			"buffer":0,
			"byteLength":3744,
			"byteOffset":11232,
			"target":34962
		},
		{
			"buffer":0,
			"byteLength":936,
			"byteOffset":14976,
			"target":34963
		},
		{
			"buffer":0,
			"byteLength":672,
			"byteOffset":15912,
			"target":34962
		},
		{
			"buffer":0,
			"byteLength":672,
			"byteOffset":16584,
			"target":34962
		},
		{
			"buffer":0,
			"byteLength":448,
			"byteOffset":17256,
			"target":34962
		},
		{
			"buffer":0,
			"byteLength":504,
			"byteOffset":17704,
			"target":34963
		},
		{
			"buffer":0,
			"byteLength":5184,
			"byteOffset":18208,
			"target":34962
		},
		{
			"buffer":0,
			"byteLength":5184,
			"byteOffset":23392,
			"target":34962
		},
		{
			"buffer":0,
			"byteLength":3456,
			"byteOffset":28576,
			"target":34962
		},
		{
			"buffer":0,
			"byteLength":864,
			"byteOffset":32032,
			"target":34963
		},
		{
			"buffer":0,
			"byteLength":5184,
			"byteOffset":32896,
			"target":34962
		},
		{
			"buffer":0,
			"byteLength":5184,
			"byteOffset":38080,
			"target":34962
		},
		{
			"buffer":0,
			"byteLength":3456,
			"byteOffset":43264,
			"target":34962
		},
		{
			"buffer":0,
			"byteLength":6048,
			"byteOffset":46720,
			"target":34962
		},
		{
			"buffer":0,
			"byteLength":6048,
			"byteOffset":52768,
			"target":34962
		},
		{
			"buffer":0,
			"byteLength":4032,
			"byteOffset":58816,
			"target":34962
		},
		{
			"buffer":0,
			"byteLength":4104,
			"byteOffset":62848,
			"target":34963
		}
	],
	"samplers":[
		{
			"magFilter":9729,
			"minFilter":9987
		}
	],
	"buffers":[
		{
			"byteLength":66952,
			"uri":"newtrees.bin"
		}
	]
}
