{
	"asset":{
		"generator":"Khronos glTF Blender I/O v5.0.21",
		"version":"2.0"
	},
	"scene":0,
	"scenes":[
		{
			"name":"Scene",
			"nodes":[
				7
			]
		}
	],
	"nodes":[
		{
			"mesh":0,
			"name":"Plane.001_leaffes_0"
		},
		{
			"mesh":1,
			"name":"Plane.001_pine_0"
		},
		{
			"mesh":2,
			"name":"Plane.001_pine_skin_0"
		},
		{
			"mesh":3,
			"name":"Plane.001_Snow_GROUND_0"
		},
		{
			"children":[
				0,
				1,
				2,
				3
			],
			"name":"Plane.001",
			"rotation":[
				-0.70710688829422,
				0,
				0,
				0.7071066498756409
			],
			"scale":[
				100,
				100.00001525878906,
				100.00001525878906
			]
		},
		{
			"children":[
				4
			],
			"name":"RootNode"
		},
		{
			"children":[
				5
			],
			"name":"51d69e6b17064f4bbded077e1277d9bb.fbx",
			"rotation":[
				0.70710688829422,
				0,
				0,
				0.7071066498756409
			],
			"scale":[
				0.009999999776482582,
				0.010000000707805157,
				0.010000000707805157
			]
		},
		{
			"children":[
				6
			],
			"name":"Sketchfab_model",
			"rotation":[
				-0.70710688829422,
				0,
				0,
				0.7071066498756409
			]
		}
	],
	"materials":[
		{
			"alphaMode":"BLEND",
			"doubleSided":true,
			"name":"leaffes",
			"occlusionTexture":{
				"index":0,
				"strength":0.5246049165725708,
				"texCoord":1
			},
			"pbrMetallicRoughness":{
				"baseColorTexture":{
					"index":1
				},
				"metallicFactor":0,
				"metallicRoughnessTexture":{
					"index":0,
					"texCoord":1
				}
			}
		},
		{
			"name":"pine",
			"occlusionTexture":{
				"index":2,
				"strength":0.786052405834198,
				"texCoord":1
			},
			"pbrMetallicRoughness":{
				"baseColorTexture":{
					"index":3
				},
				"metallicFactor":0,
				"metallicRoughnessTexture":{
					"index":2,
					"texCoord":1
				},
				"roughnessFactor":0.9877187013626099
			}
		},
		{
			"doubleSided":true,
			"name":"pine_skin",
			"occlusionTexture":{
				"index":4,
				"texCoord":1
			},
			"pbrMetallicRoughness":{
				"baseColorTexture":{
					"index":5
				},
				"metallicFactor":0,
				"metallicRoughnessTexture":{
					"index":4,
					"texCoord":1
				},
				"roughnessFactor":0.9877187013626099
			}
		},
		{
			"name":"Snow_GROUND",
			"normalTexture":{
				"index":6
			},
			"occlusionTexture":{
				"index":7
			},
			"pbrMetallicRoughness":{
				"baseColorTexture":{
					"index":8
				},
				"metallicFactor":0.29355835914611816,
				"metallicRoughnessTexture":{
					"index":7
				}
			}
		}
	],
	"meshes":[
		{
			"name":"Plane.001_leaffes_0",
			"primitives":[
				{
					"attributes":{
						"POSITION":0,
						"NORMAL":1,
						"TEXCOORD_0":2,
						"TEXCOORD_1":3,
						"COLOR_0":4
					},
					"indices":5,
					"material":0
				}
			]
		},
		{
			"name":"Plane.001_pine_0",
			"primitives":[
				{
					"attributes":{
						"POSITION":6,
						"NORMAL":7,
						"TEXCOORD_0":8,
						"TEXCOORD_1":9,
						"COLOR_0":10
					},
					"indices":11,
					"material":1
				}
			]
		},
		{
			"name":"Plane.001_pine_skin_0",
			"primitives":[
				{
					"attributes":{
						"POSITION":12,
						"NORMAL":13,
						"TEXCOORD_0":14,
						"TEXCOORD_1":15,
						"COLOR_0":16
					},
					"indices":17,
					"material":2
				}
			]
		},
		{
			"name":"Plane.001_Snow_GROUND_0",
			"primitives":[
				{
					"attributes":{
						"POSITION":18,
						"NORMAL":19,
						"TEXCOORD_0":20,
						"TEXCOORD_1":21,
						"TEXCOORD_2":22,
						"TEXCOORD_3":23,
						"COLOR_0":24
					},
					"indices":25,
					"material":3
				}
			]
		}
	],
	"textures":[
		{
			"sampler":0,
			"source":0
		},
		{
			"sampler":0,
			"source":1
		},
		{
			"sampler":0,
			"source":0
		},
		{
			"sampler":0,
			"source":2
		},
		{
			"sampler":0,
			"source":0
		},
		{
			"sampler":0,
			"source":3
		},
		{
			"sampler":0,
			"source":4
		},
		{
			"sampler":0,
			"source":5
		},
		{
			"sampler":0,
			"source":6
		}
	],
	"images":[
		{
			"mimeType":"image/png",
			"name":"pine_skin_metallicRoughness",
			"uri":"pine_skin_metallicRoughness.png"
		},
		{
			"mimeType":"image/png",
			"name":"leaffes_baseColor",
			"uri":"leaffes_baseColor.png"
		},
		{
			"mimeType":"image/png",
			"name":"pine_baseColor",
			"uri":"pine_baseColor.png"
		},
		{
			"mimeType":"image/jpeg",
			"name":"pine_skin_baseColor",
			"uri":"pine_skin_baseColor.jpg"
		},
		{
			"mimeType":"image/png",
			"name":"Snow_GROUND_normal",
			"uri":"Snow_GROUND_normal.png"
		},
		{
			"mimeType":"image/png",
			"name":"Snow_GROUND_metallicRoughness",
			"uri":"Snow_GROUND_metallicRoughness.png"
		},
		{
			"mimeType":"image/png",
			"name":"Snow_GROUND_baseColor",
			"uri":"Snow_GROUND_baseColor.png"
		}
	],
	"accessors":[
		{
			"bufferView":0,
			"componentType":5126,
			"count":10458,
			"max":[
				2.448970317840576,
				2.496234178543091,
				7.76896858215332
			],
			"min":[
				-2.463754177093506,
				-2.4059841632843018,
				0.5950689315795898
			],
			"type":"VEC3"
		},
		{
			"bufferView":1,
			"componentType":5126,
			"count":10458,
			"type":"VEC3"
		},
		{
			"bufferView":2,
			"componentType":5126,
			"count":10458,
			"type":"VEC2"
		},
		{
			"bufferView":3,
			"componentType":5126,
			"count":10458,
			"type":"VEC2"
		},
		{
			"bufferView":4,
			"componentType":5123,
			"count":10458,
			"normalized":true,
			"type":"VEC4"
		},
		{
			"bufferView":5,
			"componentType":5123,
			"count":25887,
			"type":"SCALAR"
		},
		{
			"bufferView":6,
			"componentType":5126,
			"count":3873,
			"max":[
				2.252251625061035,
				2.496211051940918,
				8.634452819824219
			],
			"min":[
				-2.39835524559021,
				-2.3630189895629883,
				-0.11488721519708633
			],
			"type":"VEC3"
		},
		{
			"bufferView":7,
			"componentType":5126,
			"count":3873,
			"type":"VEC3"
		},
		{
			"bufferView":8,
			"componentType":5126,
			"count":3873,
			"type":"VEC2"
		},
		{
			"bufferView":9,
			"componentType":5126,
			"count":3873,
			"type":"VEC2"
		},
		{
			"bufferView":10,
			"componentType":5126,
			"count":3873,
			"type":"VEC3"
		},
		{
			"bufferView":11,
			"componentType":5123,
			"count":17811,
			"type":"SCALAR"
		},
		{
			"bufferView":12,
			"componentType":5126,
			"count":23641,
			"max":[
				0.42725977301597595,
				0.38391566276550293,
				8.047833442687988
			],
			"min":[
				-0.4310186505317688,
				-0.4422112703323364,
				-0.21964499354362488
			],
			"type":"VEC3"
		},
		{
			"bufferView":13,
			"componentType":5126,
			"count":23641,
			"type":"VEC3"
		},
		{
			"bufferView":14,
			"componentType":5126,
			"count":23641,
			"type":"VEC2"
		},
		{
			"bufferView":15,
			"componentType":5126,
			"count":23641,
			"type":"VEC2"
		},
		{
			"bufferView":16,
			"componentType":5126,
			"count":23641,
			"type":"VEC3"
		},
		{
			"bufferView":17,
			"componentType":5123,
			"count":68568,
			"type":"SCALAR"
		},
		{
			"bufferView":18,
			"componentType":5126,
			"count":66302,
			"max":[
				2.3140597343444824,
				2.4395852088928223,
				7.911093235015869
			],
			"min":[
				-2.4890694618225098,
				-2.356276512145996,
				-0.11762356758117676
			],
			"type":"VEC3"
		},
		{
			"bufferView":19,
			"componentType":5126,
			"count":66302,
			"type":"VEC3"
		},
		{
			"bufferView":20,
			"componentType":5126,
			"count":66302,
			"type":"VEC2"
		},
		{
			"bufferView":21,
			"componentType":5126,
			"count":66302,
			"type":"VEC2"
		},
		{
			"bufferView":22,
			"componentType":5126,
			"count":66302,
			"type":"VEC2"
		},
		{
			"bufferView":23,
			"componentType":5126,
			"count":66302,
			"type":"VEC2"
		},
		{
			"bufferView":24,
			"componentType":5126,
			"count":66302,
			"type":"VEC3"
		},
		{
			"bufferView":25,
			"componentType":5125,
			"count":146736,
			"type":"SCALAR"
		}
	],
	"bufferViews":[
		{
			"buffer":0,
			"byteLength":125496,
			"byteOffset":0,
			"target":34962
		},
		{
			"buffer":0,
			"byteLength":125496,
			"byteOffset":125496,
			"target":34962
		},
		{
			"buffer":0,
			"byteLength":83664,
			"byteOffset":250992,
			"target":34962
		},
		{
			"buffer":0,
			"byteLength":83664,
			"byteOffset":334656,
			"target":34962
		},
		{
			"buffer":0,
			"byteLength":83664,
			"byteOffset":418320,
			"target":34962
		},
		{
			"buffer":0,
			"byteLength":51774,
			"byteOffset":501984,
			"target":34963
		},
		{
			"buffer":0,
			"byteLength":46476,
			"byteOffset":553760,
			"target":34962
		},
		{
			"buffer":0,
			"byteLength":46476,
			"byteOffset":600236,
			"target":34962
		},
		{
			"buffer":0,
			"byteLength":30984,
			"byteOffset":646712,
			"target":34962
		},
		{
			"buffer":0,
			"byteLength":30984,
			"byteOffset":677696,
			"target":34962
		},
		{
			"buffer":0,
			"byteLength":46476,
			"byteOffset":708680,
			"target":34962
		},
		{
			"buffer":0,
			"byteLength":35622,
			"byteOffset":755156,
			"target":34963
		},
		{
			"buffer":0,
			"byteLength":283692,
			"byteOffset":790780,
			"target":34962
		},
		{
			"buffer":0,
			"byteLength":283692,
			"byteOffset":1074472,
			"target":34962
		},
		{
			"buffer":0,
			"byteLength":189128,
			"byteOffset":1358164,
			"target":34962
		},
		{
			"buffer":0,
			"byteLength":189128,
			"byteOffset":1547292,
			"target":34962
		},
		{
			"buffer":0,
			"byteLength":283692,
			"byteOffset":1736420,
			"target":34962
		},
		{
			"buffer":0,
			"byteLength":137136,
			"byteOffset":2020112,
			"target":34963
		},
		{
			"buffer":0,
			"byteLength":795624,
			"byteOffset":2157248,
			"target":34962
		},
		{
			"buffer":0,
			"byteLength":795624,
			"byteOffset":2952872,
			"target":34962
		},
		{
			"buffer":0,
			"byteLength":530416,
			"byteOffset":3748496,
			"target":34962
		},
		{
			"buffer":0,
			"byteLength":530416,
			"byteOffset":4278912,
			"target":34962
		},
		{
			"buffer":0,
			"byteLength":530416,
			"byteOffset":4809328,
			"target":34962
		},
		{
			"buffer":0,
			"byteLength":530416,
			"byteOffset":5339744,
			"target":34962
		},
		{
			"buffer":0,
			"byteLength":795624,
			"byteOffset":5870160,
			"target":34962
		},
		{
			"buffer":0,
			"byteLength":586944,
			"byteOffset":6665784,
			"target":34963
		}
	],
	"samplers":[
		{
			"magFilter":9729,
			"minFilter":9987
		}
	],
	"buffers":[
		{
			"byteLength":7252728,
			"uri":"scene.bin"
		}
	]
}
