{
  "accessors": [
    {
      "bufferView": 2,
      "componentType": 5126,
      "count": 1744,
      "max": [
        0.4122280478477478,
        0.4124602973461151,
        1.822519063949585
      ],
      "min": [
        -0.4122375249862671,
        -0.4143412411212921,
        -0.10652756690979004
      ],
      "type": "VEC3"
    },
    {
      "bufferView": 2,
      "byteOffset": 20928,
      "componentType": 5126,
      "count": 1744,
      "max": [
        1.0,
        0.9993131756782532,
        1.0
      ],
      "min": [
        -1.0,
        -1.0,
        -1.0
      ],
      "type": "VEC3"
    },
    {
      "bufferView": 3,
      "componentType": 5126,
      "count": 1744,
      "max": [
        1.0,
        1.0,
        1.0,
        1.0
      ],
      "min": [
        -1.0,
        -1.0,
        -1.0,
        1.0
      ],
      "type": "VEC4"
    },
    {
      "bufferView": 1,
      "componentType": 5126,
      "count": 1744,
      "max": [
        0.9951149821281433,
        0.9894707202911377
      ],
      "min": [
        0.0039059522096067667,
        0.0039040406700223684
      ],
      "type": "VEC2"
    },
    {
      "bufferView": 0,
      "componentType": 5125,
      "count": 9486,
      "type": "SCALAR"
    },
    {
      "bufferView": 2,
      "byteOffset": 41856,
      "componentType": 5126,
      "count": 560,
      "max": [
        0.1660272479057312,
        0.04008406028151512,
        0.06736771762371063
      ],
      "min": [
        -0.1660272777080536,
        -0.03593427687883377,
        -0.06860782206058502
      ],
      "type": "VEC3"
    },
    {
      "bufferView": 2,
      "byteOffset": 48576,
      "componentType": 5126,
      "count": 560,
      "max": [
        0.9935889840126038,
        0.793801486492157,
        1.0
      ],
      "min": [
        -0.9935891628265381,
        -1.0,
        -1.0
      ],
      "type": "VEC3"
    },
    {
      "bufferView": 3,
      "byteOffset": 27904,
      "componentType": 5126,
      "count": 560,
      "max": [
        1.0,
        1.0,
        0.8188124895095825,
        1.0
      ],
      "min": [
        -1.0,
        -0.9938603639602661,
        -1.0,
        1.0
      ],
      "type": "VEC4"
    },
    {
      "bufferView": 1,
      "byteOffset": 13952,
      "componentType": 5126,
      "count": 560,
      "max": [
        0.9947257041931152,
        0.7991790771484375
      ],
      "min": [
        0.609994649887085,
        0.00390520878136158
      ],
      "type": "VEC2"
    },
    {
      "bufferView": 0,
      "byteOffset": 37944,
      "componentType": 5125,
      "count": 2328,
      "type": "SCALAR"
    },
    {
      "bufferView": 2,
      "byteOffset": 55296,
      "componentType": 5126,
      "count": 28,
      "max": [
        0.17431308329105377,
        0.017670486122369766,
        0.12232684344053268
      ],
      "min": [
        -0.17431125044822693,
        -0.01694793999195099,
        -0.12320694327354431
      ],
      "type": "VEC3"
    },
    {
      "bufferView": 2,
      "byteOffset": 55632,
      "componentType": 5126,
      "count": 28,
      "max": [
        0.9676102995872498,
        0.8769609332084656,
        3.2689631002114083e-09
      ],
      "min": [
        -1.0,
        -1.0,
        -3.397827796902675e-08
      ],
      "type": "VEC3"
    },
    {
      "bufferView": 3,
      "byteOffset": 36864,
      "componentType": 5126,
      "count": 28,
      "max": [
        1.4666904917248758e-06,
        1.0,
        1.0,
        1.0
      ],
      "min": [
        -2.1809854899856873e-07,
        -7.657165497221285e-07,
        -1.0,
        1.0
      ],
      "type": "VEC4"
    },
    {
      "bufferView": 1,
      "byteOffset": 18432,
      "componentType": 5126,
      "count": 28,
      "max": [
        0.9250985383987427,
        0.8198808431625366
      ],
      "min": [
        0.0039018699899315834,
        0.003908327780663967
      ],
      "type": "VEC2"
    },
    {
      "bufferView": 0,
      "byteOffset": 47256,
      "componentType": 5125,
      "count": 66,
      "type": "SCALAR"
    }
  ],
  "asset": {
    "extras": {
      "author": "Lisov1k (https://sketchfab.com/Lisov1k)",
      "license": "CC-BY-4.0 (http://creativecommons.org/licenses/by/4.0/)",
      "source": "https://sketchfab.com/3d-models/japanese-mailbox-aad08d888ae4498da59c47faf149208e",
      "title": "Japanese mailbox"
    },
    "generator": "Sketchfab-12.93.0",
    "version": "2.0"
  },
  "bufferViews": [
    {
      "buffer": 0,
      "byteLength": 47520,
      "name": "floatBufferViews",
      "target": 34963
    },
    {
      "buffer": 0,
      "byteLength": 18656,
      "byteOffset": 47520,
      "byteStride": 8,
      "name": "floatBufferViews",
      "target": 34962
    },
    {
      "buffer": 0,
      "byteLength": 55968,
      "byteOffset": 66176,
      "byteStride": 12,
      "name": "floatBufferViews",
      "target": 34962
    },
    {
      "buffer": 0,
      "byteLength": 37312,
      "byteOffset": 122144,
      "byteStride": 16,
      "name": "floatBufferViews",
      "target": 34962
    }
  ],
  "buffers": [
    {
      "byteLength": 159456,
      "uri": "scene.bin"
    }
  ],
  "images": [
    {
      "uri": "textures/Mailbox_baseColor.png"
    },
    {
      "uri": "textures/Mailbox_metallicRoughness.png"
    },
    {
      "uri": "textures/Mailbox_normal.png"
    }
  ],
  "materials": [
    {
      "doubleSided": true,
      "name": "Mailbox",
      "normalTexture": {
        "index": 2
      },
      "pbrMetallicRoughness": {
        "baseColorTexture": {
          "index": 0
        },
        "metallicRoughnessTexture": {
          "index": 1
        }
      }
    }
  ],
  "meshes": [
    {
      "name": "Body_Low_Mailbox_0",
      "primitives": [
        {
          "attributes": {
            "NORMAL": 1,
            "POSITION": 0,
            "TANGENT": 2,
            "TEXCOORD_0": 3
          },
          "indices": 4,
          "material": 0,
          "mode": 4
        }
      ]
    },
    {
      "name": "Corner_Low_Mailbox_0",
      "primitives": [
        {
          "attributes": {
            "NORMAL": 6,
            "POSITION": 5,
            "TANGENT": 7,
            "TEXCOORD_0": 8
          },
          "indices": 9,
          "material": 0,
          "mode": 4
        }
      ]
    },
    {
      "name": "Door_Low_Mailbox_0",
      "primitives": [
        {
          "attributes": {
            "NORMAL": 11,
            "POSITION": 10,
            "TANGENT": 12,
            "TEXCOORD_0": 13
          },
          "indices": 14,
          "material": 0,
          "mode": 4
        }
      ]
    }
  ],
  "nodes": [
    {
      "children": [
        1
      ],
      "matrix": [
        0.8402091264724731,
        0.0,
        0.0,
        0.0,
        0.0,
        1.8656390354198596e-16,
        -0.8402091264724731,
        0.0,
        0.0,
        0.8402091264724731,
        1.8656390354198596e-16,
        0.0,
        0.0,
        0.0,
        0.0,
        1.0
      ],
      "name": "Sketchfab_model"
    },
    {
      "children": [
        2
      ],
      "matrix": [
        0.009999999776482582,
        0.0,
        0.0,
        0.0,
        0.0,
        0.0,
        0.009999999776482582,
        0.0,
        0.0,
        -0.009999999776482582,
        0.0,
        0.0,
        0.0,
        0.0,
        0.0,
        1.0
      ],
      "name": "0e2e6dd7f9d54ec0886499e56522641f.fbx"
    },
    {
      "children": [
        3,
        5,
        7
      ],
      "name": "RootNode"
    },
    {
      "children": [
        4
      ],
      "matrix": [
        100.0,
        0.0,
        0.0,
        0.0,
        0.0,
        -1.629206793918314e-05,
        -99.99999999999868,
        0.0,
        0.0,
        99.99999999999868,
        -1.629206793918314e-05,
        0.0,
        0.0,
        0.0,
        0.0,
        1.0
      ],
      "name": "Body_Low"
    },
    {
      "mesh": 0,
      "name": "Body_Low_Mailbox_0"
    },
    {
      "children": [
        6
      ],
      "matrix": [
        100.0,
        0.0,
        0.0,
        0.0,
        0.0,
        -1.629206793918314e-05,
        -99.99999999999868,
        0.0,
        0.0,
        99.99999999999868,
        -1.629206793918314e-05,
        0.0,
        0.0,
        136.0278778076172,
        39.5070915222168,
        1.0
      ],
      "name": "Corner_Low"
    },
    {
      "mesh": 1,
      "name": "Corner_Low_Mailbox_0"
    },
    {
      "children": [
        8
      ],
      "matrix": [
        100.0,
        0.0,
        0.0,
        0.0,
        0.0,
        -1.629206793918314e-05,
        -99.99999999999868,
        0.0,
        0.0,
        99.99999999999868,
        -1.629206793918314e-05,
        0.0,
        0.01026242971420288,
        58.9879150390625,
        35.642066955566406,
        1.0
      ],
      "name": "Door_Low"
    },
    {
      "mesh": 2,
      "name": "Door_Low_Mailbox_0"
    }
  ],
  "samplers": [
    {
      "magFilter": 9729,
      "minFilter": 9987,
      "wrapS": 10497,
      "wrapT": 10497
    }
  ],
  "scene": 0,
  "scenes": [
    {
      "name": "Sketchfab_Scene",
      "nodes": [
        0
      ]
    }
  ],
  "textures": [
    {
      "sampler": 0,
      "source": 0
    },
    {
      "sampler": 0,
      "source": 1
    },
    {
      "sampler": 0,
      "source": 2
    }
  ]
}
