{
  "accessors": [
    {
      "bufferView": 2,
      "componentType": 5126,
      "count": 2371,
      "max": [
        0.3037149906158447,
        1.3400099277496338,
        0.13756699860095978
      ],
      "min": [
        -0.3411639928817749,
        0.29019099473953247,
        -0.11255498975515366
      ],
      "type": "VEC3"
    },
    {
      "bufferView": 2,
      "byteOffset": 28452,
      "componentType": 5126,
      "count": 2371,
      "max": [
        0.999915361404419,
        0.9981493949890137,
        0.9998326301574707
      ],
      "min": [
        -0.9998383522033691,
        -0.9983705878257751,
        -0.9999755620956421
      ],
      "type": "VEC3"
    },
    {
      "bufferView": 1,
      "componentType": 5126,
      "count": 2371,
      "max": [
        0.9960939884185791,
        0.8178709745407104
      ],
      "min": [
        0.00596599979326129,
        0.01269499957561493
      ],
      "type": "VEC2"
    },
    {
      "bufferView": 0,
      "componentType": 5125,
      "count": 11142,
      "type": "SCALAR"
    },
    {
      "bufferView": 2,
      "byteOffset": 56904,
      "componentType": 5126,
      "count": 1468,
      "max": [
        0.24747799336910248,
        1.2819960117340088,
        0.09342999756336212
      ],
      "min": [
        -0.214959979057312,
        1.017428994178772,
        -0.1578889936208725
      ],
      "type": "VEC3"
    },
    {
      "bufferView": 2,
      "byteOffset": 74520,
      "componentType": 5126,
      "count": 1468,
      "max": [
        0.9961380362510681,
        0.9890189170837402,
        0.9972115159034729
      ],
      "min": [
        -0.9999147653579712,
        -0.9980237483978271,
        -0.9963232278823853
      ],
      "type": "VEC3"
    },
    {
      "bufferView": 1,
      "byteOffset": 18968,
      "componentType": 5126,
      "count": 1468,
      "max": [
        0.996940016746521,
        0.9935870170593262
      ],
      "min": [
        0.007342999801039696,
        0.001744000008329749
      ],
      "type": "VEC2"
    },
    {
      "bufferView": 0,
      "byteOffset": 44568,
      "componentType": 5125,
      "count": 6870,
      "type": "SCALAR"
    },
    {
      "bufferView": 2,
      "byteOffset": 92136,
      "componentType": 5126,
      "count": 5086,
      "max": [
        0.22638000547885895,
        1.5696570873260498,
        0.12026698887348175
      ],
      "min": [
        -0.11834199726581573,
        -0.007360999938100576,
        -0.20772197842597961
      ],
      "type": "VEC3"
    },
    {
      "bufferView": 2,
      "byteOffset": 153168,
      "componentType": 5126,
      "count": 5086,
      "max": [
        0.999658465385437,
        0.9994040727615356,
        0.999958872795105
      ],
      "min": [
        -0.9994794726371765,
        -0.999437153339386,
        -0.9999188184738159
      ],
      "type": "VEC3"
    },
    {
      "bufferView": 1,
      "byteOffset": 30712,
      "componentType": 5126,
      "count": 5086,
      "max": [
        0.9921879768371582,
        0.9932100176811218
      ],
      "min": [
        0.00685499981045723,
        0.0039059999398887157
      ],
      "type": "VEC2"
    },
    {
      "bufferView": 0,
      "byteOffset": 72048,
      "componentType": 5125,
      "count": 15852,
      "type": "SCALAR"
    },
    {
      "bufferView": 2,
      "byteOffset": 214200,
      "componentType": 5126,
      "count": 1600,
      "max": [
        0.31509900093078613,
        1.2900750637054443,
        0.11266999691724777
      ],
      "min": [
        -0.3197470009326935,
        0.7885339856147766,
        -0.13216200470924377
      ],
      "type": "VEC3"
    },
    {
      "bufferView": 2,
      "byteOffset": 233400,
      "componentType": 5126,
      "count": 1600,
      "max": [
        0.9962299466133118,
        0.9939526915550232,
        0.9997262358665466
      ],
      "min": [
        -0.9996808767318726,
        -0.9944756627082825,
        -0.9995504021644592
      ],
      "type": "VEC3"
    },
    {
      "bufferView": 1,
      "byteOffset": 71400,
      "componentType": 5126,
      "count": 1600,
      "max": [
        0.9241089820861816,
        0.7250580191612244
      ],
      "min": [
        0.1914210021495819,
        0.0035290000960230827
      ],
      "type": "VEC2"
    },
    {
      "bufferView": 0,
      "byteOffset": 135456,
      "componentType": 5125,
      "count": 6852,
      "type": "SCALAR"
    },
    {
      "bufferView": 2,
      "byteOffset": 252600,
      "componentType": 5126,
      "count": 1659,
      "max": [
        0.2473529875278473,
        1.0469269752502441,
        0.17045700550079346
      ],
      "min": [
        -0.22632400691509247,
        0.7033330202102661,
        -0.1682639867067337
      ],
      "type": "VEC3"
    },
    {
      "bufferView": 2,
      "byteOffset": 272508,
      "componentType": 5126,
      "count": 1659,
      "max": [
        0.998903751373291,
        0.877783477306366,
        0.9985313415527344
      ],
      "min": [
        -0.9957104921340942,
        -0.9908299446105957,
        -0.996900200843811
      ],
      "type": "VEC3"
    },
    {
      "bufferView": 1,
      "byteOffset": 84200,
      "componentType": 5126,
      "count": 1659,
      "max": [
        0.9022520184516907,
        0.9956740140914917
      ],
      "min": [
        0.18929199874401093,
        0.2860319912433624
      ],
      "type": "VEC2"
    },
    {
      "bufferView": 0,
      "byteOffset": 162864,
      "componentType": 5125,
      "count": 6096,
      "type": "SCALAR"
    },
    {
      "bufferView": 2,
      "byteOffset": 292416,
      "componentType": 5126,
      "count": 55,
      "max": [
        0.08543999493122101,
        1.384834885597229,
        0.03697500005364418
      ],
      "min": [
        0.03792199864983559,
        1.3367669582366943,
        0.012246999889612198
      ],
      "type": "VEC3"
    },
    {
      "bufferView": 2,
      "byteOffset": 293076,
      "componentType": 5126,
      "count": 55,
      "max": [
        0.9854627847671509,
        0.6642895340919495,
        0.983055591583252
      ],
      "min": [
        -0.6463286876678467,
        -0.805483877658844,
        0.011099976487457752
      ],
      "type": "VEC3"
    },
    {
      "bufferView": 1,
      "byteOffset": 97472,
      "componentType": 5126,
      "count": 55,
      "max": [
        0.8536900281906128,
        0.7700579762458801
      ],
      "min": [
        0.1463100016117096,
        0.2631019949913025
      ],
      "type": "VEC2"
    },
    {
      "bufferView": 0,
      "byteOffset": 187248,
      "componentType": 5125,
      "count": 240,
      "type": "SCALAR"
    },
    {
      "bufferView": 2,
      "byteOffset": 293736,
      "componentType": 5126,
      "count": 55,
      "max": [
        0.01153900008648634,
        1.376816987991333,
        0.03445399925112724
      ],
      "min": [
        -0.03741699457168579,
        1.3328030109405518,
        0.009726000018417835
      ],
      "type": "VEC3"
    },
    {
      "bufferView": 2,
      "byteOffset": 294396,
      "componentType": 5126,
      "count": 55,
      "max": [
        0.6985244750976563,
        0.5622757077217102,
        0.9826865196228027
      ],
      "min": [
        -0.9771155118942261,
        -0.8377251625061035,
        0.011300303041934967
      ],
      "type": "VEC3"
    },
    {
      "bufferView": 1,
      "byteOffset": 97912,
      "componentType": 5126,
      "count": 55,
      "max": [
        0.8536900281906128,
        0.7700579762458801
      ],
      "min": [
        0.1463100016117096,
        0.2631019949913025
      ],
      "type": "VEC2"
    },
    {
      "bufferView": 0,
      "byteOffset": 188208,
      "componentType": 5125,
      "count": 240,
      "type": "SCALAR"
    },
    {
      "bufferView": 2,
      "byteOffset": 295056,
      "componentType": 5126,
      "count": 178,
      "max": [
        0.09017100185155869,
        1.3994150161743164,
        0.052177999168634415
      ],
      "min": [
        -0.04097599908709526,
        1.3493280410766602,
        0.013145999051630497
      ],
      "type": "VEC3"
    },
    {
      "bufferView": 2,
      "byteOffset": 297192,
      "componentType": 5126,
      "count": 178,
      "max": [
        0.7719239592552185,
        0.4013994634151459,
        0.9517732858657837
      ],
      "min": [
        -0.8162657618522644,
        -0.7606002688407898,
        0.570576012134552
      ],
      "type": "VEC3"
    },
    {
      "bufferView": 1,
      "byteOffset": 98352,
      "componentType": 5126,
      "count": 178,
      "max": [
        0.9721680283546448,
        0.10693400353193283
      ],
      "min": [
        0.6137700080871582,
        0.016112999990582466
      ],
      "type": "VEC2"
    },
    {
      "bufferView": 0,
      "byteOffset": 189168,
      "componentType": 5125,
      "count": 546,
      "type": "SCALAR"
    },
    {
      "bufferView": 2,
      "byteOffset": 299328,
      "componentType": 5126,
      "count": 46,
      "max": [
        0.08676300197839737,
        1.3994150161743164,
        0.052177999168634415
      ],
      "min": [
        -0.04097599908709526,
        1.3777790069580078,
        0.024458998814225197
      ],
      "type": "VEC3"
    },
    {
      "bufferView": 2,
      "byteOffset": 299880,
      "componentType": 5126,
      "count": 46,
      "max": [
        0.7719239592552185,
        0.4013994634151459,
        0.9517732858657837
      ],
      "min": [
        -0.8162657618522644,
        -0.7606002688407898,
        0.570576012134552
      ],
      "type": "VEC3"
    },
    {
      "bufferView": 1,
      "byteOffset": 99776,
      "componentType": 5126,
      "count": 46,
      "max": [
        0.9721680283546448,
        0.08789099752902985
      ],
      "min": [
        0.7773439884185791,
        0.05712899938225746
      ],
      "type": "VEC2"
    },
    {
      "bufferView": 0,
      "byteOffset": 191352,
      "componentType": 5125,
      "count": 168,
      "type": "SCALAR"
    },
    {
      "bufferView": 2,
      "byteOffset": 300432,
      "componentType": 5126,
      "count": 931,
      "max": [
        0.11753599345684052,
        1.5017199516296387,
        0.056637998670339584
      ],
      "min": [
        -0.06642799824476242,
        1.2771190404891968,
        -0.1365559995174408
      ],
      "type": "VEC3"
    },
    {
      "bufferView": 2,
      "byteOffset": 311604,
      "componentType": 5126,
      "count": 931,
      "max": [
        0.9993233680725098,
        0.9906041026115417,
        0.9997491240501404
      ],
      "min": [
        -0.9978737831115723,
        -0.9971651434898376,
        -0.9956166744232178
      ],
      "type": "VEC3"
    },
    {
      "bufferView": 1,
      "byteOffset": 100144,
      "componentType": 5126,
      "count": 931,
      "max": [
        0.9975590109825134,
        0.9414060115814209
      ],
      "min": [
        0.002217999892309308,
        0.13476599752902985
      ],
      "type": "VEC2"
    },
    {
      "bufferView": 0,
      "byteOffset": 192024,
      "componentType": 5125,
      "count": 5292,
      "type": "SCALAR"
    },
    {
      "bufferView": 2,
      "byteOffset": 322776,
      "componentType": 5126,
      "count": 249,
      "max": [
        0.04555800184607506,
        1.317829966545105,
        0.038311995565891266
      ],
      "min": [
        0.010352998971939087,
        1.2995150089263916,
        0.0075309993699193
      ],
      "type": "VEC3"
    },
    {
      "bufferView": 2,
      "byteOffset": 325764,
      "componentType": 5126,
      "count": 249,
      "max": [
        0.9997240900993347,
        0.9995157718658447,
        0.9455360770225525
      ],
      "min": [
        -0.9980485439300537,
        -0.9973067045211792,
        -0.999552309513092
      ],
      "type": "VEC3"
    },
    {
      "bufferView": 1,
      "byteOffset": 107592,
      "componentType": 5126,
      "count": 249,
      "max": [
        0.49536100029945374,
        0.12304700165987015
      ],
      "min": [
        0.004352999851107597,
        0.0034179999493062496
      ],
      "type": "VEC2"
    },
    {
      "bufferView": 0,
      "byteOffset": 213192,
      "componentType": 5125,
      "count": 1044,
      "type": "SCALAR"
    },
    {
      "bufferView": 2,
      "byteOffset": 328752,
      "componentType": 5126,
      "count": 4277,
      "max": [
        0.13075900077819824,
        1.5139598846435547,
        0.07596799731254578
      ],
      "min": [
        -0.09497399628162384,
        1.225661039352417,
        -0.14858800172805786
      ],
      "type": "VEC3"
    },
    {
      "bufferView": 2,
      "byteOffset": 380076,
      "componentType": 5126,
      "count": 4277,
      "max": [
        0.9980802536010742,
        0.9999773502349854,
        0.9999954700469971
      ],
      "min": [
        -0.9999876022338867,
        -0.9993181228637695,
        -0.9999923706054688
      ],
      "type": "VEC3"
    },
    {
      "bufferView": 1,
      "byteOffset": 109584,
      "componentType": 5126,
      "count": 4277,
      "max": [
        0.9926760196685791,
        0.9964079856872559
      ],
      "min": [
        0.005698999855667353,
        0.005859000142663717
      ],
      "type": "VEC2"
    },
    {
      "bufferView": 0,
      "byteOffset": 217368,
      "componentType": 5125,
      "count": 16236,
      "type": "SCALAR"
    }
  ],
  "asset": {
    "extras": {
      "author": "ilyakardailskiy (https://sketchfab.com/ilyakardailskiy)",
      "license": "CC-BY-4.0 (http://creativecommons.org/licenses/by/4.0/)",
      "source": "https://sketchfab.com/3d-models/rorona-falling-snow-atelier-resleriana-4d9cd551cd8d46f594e1282ecd16acee",
      "title": "Rorona (Falling Snow) Atelier Resleriana"
    },
    "generator": "Sketchfab-16.68.0",
    "version": "2.0"
  },
  "bufferViews": [
    {
      "buffer": 0,
      "byteLength": 282312,
      "name": "floatBufferViews",
      "target": 34963
    },
    {
      "buffer": 0,
      "byteLength": 143800,
      "byteOffset": 282312,
      "byteStride": 8,
      "name": "floatBufferViews",
      "target": 34962
    },
    {
      "buffer": 0,
      "byteLength": 431400,
      "byteOffset": 426112,
      "byteStride": 12,
      "name": "floatBufferViews",
      "target": 34962
    }
  ],
  "buffers": [
    {
      "byteLength": 857512,
      "uri": "scene.bin"
    }
  ],
  "images": [
    {
      "uri": "textures/New_Material_Variant_Variant_Variant_baseColor.png"
    },
    {
      "uri": "textures/New_Material_Variant_Variant_Variant_Variant_baseColor.png"
    },
    {
      "uri": "textures/New_Material_baseColor.png"
    },
    {
      "uri": "textures/New_Material_Variant_baseColor.png"
    },
    {
      "uri": "textures/New_Material_Variant_Variant_baseColor.png"
    }
  ],
  "materials": [
    {
      "doubleSided": true,
      "name": "New_Material_Variant_Variant_Variant",
      "pbrMetallicRoughness": {
        "baseColorTexture": {
          "index": 0
        },
        "metallicFactor": 0.0,
        "roughnessFactor": 0.6
      }
    },
    {
      "doubleSided": true,
      "name": "New_Material_Variant_Variant_Variant_Variant",
      "pbrMetallicRoughness": {
        "baseColorTexture": {
          "index": 1
        },
        "metallicFactor": 0.0,
        "roughnessFactor": 0.6
      }
    },
    {
      "doubleSided": true,
      "name": "New_Material",
      "pbrMetallicRoughness": {
        "baseColorTexture": {
          "index": 2
        },
        "metallicFactor": 0.0,
        "roughnessFactor": 0.6
      }
    },
    {
      "doubleSided": true,
      "name": "New_Material_Variant",
      "pbrMetallicRoughness": {
        "baseColorTexture": {
          "index": 3
        },
        "metallicFactor": 0.0,
        "roughnessFactor": 0.6
      }
    },
    {
      "doubleSided": true,
      "name": "Face",
      "pbrMetallicRoughness": {
        "baseColorFactor": [
          0.797738,
          0.797738,
          0.797738,
          1.0
        ],
        "metallicFactor": 0.0,
        "roughnessFactor": 0.6
      }
    },
    {
      "doubleSided": true,
      "name": "New_Material_Variant_Variant",
      "pbrMetallicRoughness": {
        "baseColorTexture": {
          "index": 4
        },
        "metallicFactor": 0.0,
        "roughnessFactor": 0.6
      }
    }
  ],
  "meshes": [
    {
      "name": "Body_New_Material_Variant_Variant_Variant_0",
      "primitives": [
        {
          "attributes": {
            "NORMAL": 1,
            "POSITION": 0,
            "TEXCOORD_0": 2
          },
          "indices": 3,
          "material": 0,
          "mode": 4
        }
      ]
    },
    {
      "name": "Clothes_3_New_Material_Variant_Variant_Variant_Variant_0",
      "primitives": [
        {
          "attributes": {
            "NORMAL": 5,
            "POSITION": 4,
            "TEXCOORD_0": 6
          },
          "indices": 7,
          "material": 1,
          "mode": 4
        }
      ]
    },
    {
      "name": "Clothes_5_New_Material_Variant_Variant_Variant_Variant_0",
      "primitives": [
        {
          "attributes": {
            "NORMAL": 9,
            "POSITION": 8,
            "TEXCOORD_0": 10
          },
          "indices": 11,
          "material": 1,
          "mode": 4
        }
      ]
    },
    {
      "name": "Clothes_7_New_Material_Variant_Variant_Variant_Variant_0",
      "primitives": [
        {
          "attributes": {
            "NORMAL": 13,
            "POSITION": 12,
            "TEXCOORD_0": 14
          },
          "indices": 15,
          "material": 1,
          "mode": 4
        }
      ]
    },
    {
      "name": "Clothes_8_New_Material_Variant_Variant_Variant_Variant_0",
      "primitives": [
        {
          "attributes": {
            "NORMAL": 17,
            "POSITION": 16,
            "TEXCOORD_0": 18
          },
          "indices": 19,
          "material": 1,
          "mode": 4
        }
      ]
    },
    {
      "name": "Eye_L_New_Material_0",
      "primitives": [
        {
          "attributes": {
            "NORMAL": 21,
            "POSITION": 20,
            "TEXCOORD_0": 22
          },
          "indices": 23,
          "material": 2,
          "mode": 4
        }
      ]
    },
    {
      "name": "Eye_R_New_Material_0",
      "primitives": [
        {
          "attributes": {
            "NORMAL": 25,
            "POSITION": 24,
            "TEXCOORD_0": 26
          },
          "indices": 27,
          "material": 2,
          "mode": 4
        }
      ]
    },
    {
      "name": "Face_1_New_Material_Variant_0",
      "primitives": [
        {
          "attributes": {
            "NORMAL": 29,
            "POSITION": 28,
            "TEXCOORD_0": 30
          },
          "indices": 31,
          "material": 3,
          "mode": 4
        }
      ]
    },
    {
      "name": "Face_2_Face_0",
      "primitives": [
        {
          "attributes": {
            "NORMAL": 33,
            "POSITION": 32,
            "TEXCOORD_0": 34
          },
          "indices": 35,
          "material": 4,
          "mode": 4
        }
      ]
    },
    {
      "name": "Face_3_New_Material_Variant_0",
      "primitives": [
        {
          "attributes": {
            "NORMAL": 37,
            "POSITION": 36,
            "TEXCOORD_0": 38
          },
          "indices": 39,
          "material": 3,
          "mode": 4
        }
      ]
    },
    {
      "name": "Face_4_Face_0",
      "primitives": [
        {
          "attributes": {
            "NORMAL": 41,
            "POSITION": 40,
            "TEXCOORD_0": 42
          },
          "indices": 43,
          "material": 4,
          "mode": 4
        }
      ]
    },
    {
      "name": "Hair_New_Material_Variant_Variant_0",
      "primitives": [
        {
          "attributes": {
            "NORMAL": 45,
            "POSITION": 44,
            "TEXCOORD_0": 46
          },
          "indices": 47,
          "material": 5,
          "mode": 4
        }
      ]
    }
  ],
  "nodes": [
    {
      "children": [
        1
      ],
      "matrix": [
        1.0,
        0.0,
        0.0,
        0.0,
        0.0,
        2.220446049250313e-16,
        -1.0,
        0.0,
        0.0,
        1.0,
        2.220446049250313e-16,
        0.0,
        0.0,
        0.0,
        0.0,
        1.0
      ],
      "name": "Sketchfab_model"
    },
    {
      "children": [
        2
      ],
      "matrix": [
        0.009999999776482582,
        0.0,
        0.0,
        0.0,
        0.0,
        0.0,
        0.009999999776482582,
        0.0,
        0.0,
        -0.009999999776482582,
        0.0,
        0.0,
        0.0,
        0.0,
        0.0,
        1.0
      ],
      "name": "_Rorona.fbx"
    },
    {
      "children": [
        3
      ],
      "name": "RootNode"
    },
    {
      "children": [
        4,
        6,
        8,
        10,
        12,
        14,
        16,
        18,
        20,
        22,
        24,
        26
      ],
      "matrix": [
        275.4232177734375,
        0.0,
        0.0,
        0.0,
        0.0,
        275.4232177734375,
        0.0,
        0.0,
        0.0,
        0.0,
        275.4232177734375,
        0.0,
        0.0,
        0.0,
        0.0,
        1.0
      ],
      "name": "AnyConv_com__Rorona__1_"
    },
    {
      "children": [
        5
      ],
      "name": "Body"
    },
    {
      "mesh": 0,
      "name": "Body_New_Material_Variant_Variant_Variant_0"
    },
    {
      "children": [
        7
      ],
      "name": "Clothes_3"
    },
    {
      "mesh": 1,
      "name": "Clothes_3_New_Material_Variant_Variant_Variant_Variant_0"
    },
    {
      "children": [
        9
      ],
      "name": "Clothes_5"
    },
    {
      "mesh": 2,
      "name": "Clothes_5_New_Material_Variant_Variant_Variant_Variant_0"
    },
    {
      "children": [
        11
      ],
      "name": "Clothes_7"
    },
    {
      "mesh": 3,
      "name": "Clothes_7_New_Material_Variant_Variant_Variant_Variant_0"
    },
    {
      "children": [
        13
      ],
      "name": "Clothes_8"
    },
    {
      "mesh": 4,
      "name": "Clothes_8_New_Material_Variant_Variant_Variant_Variant_0"
    },
    {
      "children": [
        15
      ],
      "name": "Eye_L"
    },
    {
      "mesh": 5,
      "name": "Eye_L_New_Material_0"
    },
    {
      "children": [
        17
      ],
      "name": "Eye_R"
    },
    {
      "mesh": 6,
      "name": "Eye_R_New_Material_0"
    },
    {
      "children": [
        19
      ],
      "name": "Face_1"
    },
    {
      "mesh": 7,
      "name": "Face_1_New_Material_Variant_0"
    },
    {
      "children": [
        21
      ],
      "name": "Face_2"
    },
    {
      "mesh": 8,
      "name": "Face_2_Face_0"
    },
    {
      "children": [
        23
      ],
      "name": "Face_3"
    },
    {
      "mesh": 9,
      "name": "Face_3_New_Material_Variant_0"
    },
    {
      "children": [
        25
      ],
      "name": "Face_4"
    },
    {
      "mesh": 10,
      "name": "Face_4_Face_0"
    },
    {
      "children": [
        27
      ],
      "name": "Hair"
    },
    {
      "mesh": 11,
      "name": "Hair_New_Material_Variant_Variant_0"
    }
  ],
  "samplers": [
    {
      "magFilter": 9729,
      "minFilter": 9987,
      "wrapS": 10497,
      "wrapT": 10497
    }
  ],
  "scene": 0,
  "scenes": [
    {
      "name": "Sketchfab_Scene",
      "nodes": [
        0
      ]
    }
  ],
  "textures": [
    {
      "sampler": 0,
      "source": 0
    },
    {
      "sampler": 0,
      "source": 1
    },
    {
      "sampler": 0,
      "source": 2
    },
    {
      "sampler": 0,
      "source": 3
    },
    {
      "sampler": 0,
      "source": 4
    }
  ]
}
