{
	"asset":{
		"generator":"Khronos glTF Blender I/O v5.0.21",
		"version":"2.0"
	},
	"scene":0,
	"scenes":[
		{
			"name":"Scene",
			"nodes":[
				8,
				9,
				11
			]
		}
	],
	"nodes":[
		{
			"name":"Object_5_5"
		},
		{
			"children":[
				0
			],
			"name":"zq127_binglong_mode_4",
			"scale":[
				1.5,
				1.4999998807907104,
				1.4999998807907104
			]
		},
		{
			"children":[
				1
			],
			"name":"RootNode_3"
		},
		{
			"children":[
				2
			],
			"name":"Object_2_2"
		},
		{
			"children":[
				3
			],
			"name":"zq127_binglong_mode.fbx_1",
			"rotation":[
				0.70710688829422,
				0,
				0,
				0.7071066498756409
			],
			"scale":[
				0.009999998845160007,
				0.009999999776482582,
				0.009999999776482582
			]
		},
		{
			"children":[
				4
			],
			"name":"Sketchfab_model_0",
			"rotation":[
				-0.70710688829422,
				0,
				0,
				0.7071066498756409
			],
			"scale":[
				20.611576080322266,
				20.6115779876709,
				20.6115779876709
			]
		},
		{
			"children":[
				5
			],
			"name":"GLTF_SceneRootNode",
			"rotation":[
				0.70710688829422,
				0,
				0,
				0.7071066498756409
			]
		},
		{
			"children":[
				6
			],
			"name":"root"
		},
		{
			"children":[
				7
			],
			"name":"Sketchfab_model",
			"rotation":[
				-0.70710688829422,
				0,
				0,
				0.7071066498756409
			],
			"scale":[
				0.9886518716812134,
				0.9886519908905029,
				0.9886519908905029
			]
		},
		{
			"mesh":0,
			"name":"Object_102"
		},
		{
			"name":"Object_8_8"
		},
		{
			"children":[
				10
			],
			"name":"Object_8_8_correction"
		}
	],
	"materials":[
		{
			"doubleSided":true,
			"name":"zq127_binglong_1",
			"pbrMetallicRoughness":{
				"baseColorTexture":{
					"index":0
				},
				"metallicFactor":0,
				"roughnessFactor":0.957705020904541
			}
		}
	],
	"meshes":[
		{
			"name":"Object_0",
			"primitives":[
				{
					"attributes":{
						"POSITION":0,
						"NORMAL":1,
						"TEXCOORD_0":2
					},
					"indices":3,
					"material":0
				}
			]
		}
	],
	"textures":[
		{
			"sampler":0,
			"source":0
		}
	],
	"images":[
		{
			"mimeType":"image/png",
			"name":"zq127_binglong_1_baseColor",
			"uri":"zq127_binglong_1_baseColor.png"
		}
	],
	"accessors":[
		{
			"bufferView":0,
			"componentType":5126,
			"count":5277,
			"max":[
				3.9036738872528076,
				6.245110988616943,
				1.8088901042938232
			],
			"min":[
				-3.729067802429199,
				0.08773326873779297,
				-2.4256234169006348
			],
			"type":"VEC3"
		},
		{
			"bufferView":1,
			"componentType":5126,
			"count":5277,
			"type":"VEC3"
		},
		{
			"bufferView":2,
			"componentType":5126,
			"count":5277,
			"type":"VEC2"
		},
		{
			"bufferView":3,
			"componentType":5123,
			"count":22884,
			"type":"SCALAR"
		}
	],
	"bufferViews":[
		{
			"buffer":0,
			"byteLength":63324,
			"byteOffset":0,
			"target":34962
		},
		{
			"buffer":0,
			"byteLength":63324,
			"byteOffset":63324,
			"target":34962
		},
		{
			"buffer":0,
			"byteLength":42216,
			"byteOffset":126648,
			"target":34962
		},
		{
			"buffer":0,
			"byteLength":45768,
			"byteOffset":168864,
			"target":34963
		}
	],
	"samplers":[
		{
			"magFilter":9729,
			"minFilter":9987
		}
	],
	"buffers":[
		{
			"byteLength":214632,
			"uri":"scene.bin"
		}
	]
}
