# Blender 5.0.0
# www.blender.org
mtllib 001.mtl
o 立方体.006
v 1.616210 0.918592 0.950005
v 1.616210 0.950682 0.982095
v 1.591769 0.950682 0.950005
v 1.616210 0.921035 0.962285
v 1.616210 0.927991 0.972696
v 1.606857 0.921035 0.950005
v 1.606622 0.923983 0.962593
v 1.607109 0.929623 0.971064
v 1.602099 0.932155 0.968532
v 1.606857 0.950682 0.979652
v 1.598927 0.950682 0.972696
v 1.616210 0.938402 0.979652
v 1.606622 0.938094 0.976704
v 1.600170 0.938733 0.971064
v 1.593629 0.938402 0.950005
v 1.598927 0.927991 0.950005
v 1.593629 0.950682 0.962285
v 1.595874 0.938094 0.962593
v 1.600170 0.929623 0.961954
v 1.616210 1.036398 0.982095
v 1.616210 1.068489 0.950005
v 1.591769 1.036398 0.950005
v 1.616210 1.048679 0.979652
v 1.616210 1.059090 0.972696
v 1.606857 1.036398 0.979652
v 1.606622 1.048987 0.976704
v 1.607109 1.057458 0.971064
v 1.602099 1.054926 0.968532
v 1.606857 1.066046 0.950005
v 1.598927 1.059090 0.950005
v 1.616210 1.066046 0.962285
v 1.606622 1.063098 0.962593
v 1.600170 1.057458 0.961954
v 1.593629 1.036398 0.962285
v 1.598927 1.036398 0.972696
v 1.593629 1.048679 0.950005
v 1.595874 1.048987 0.962593
v 1.600170 1.048348 0.971064
v 1.616210 0.918592 -0.468496
v 1.591769 0.950682 -0.468496
v 1.616210 0.950682 -0.500587
v 1.606857 0.921035 -0.468496
v 1.598927 0.927991 -0.468496
v 1.616210 0.921035 -0.480777
v 1.606622 0.923983 -0.481084
v 1.600170 0.929623 -0.480446
v 1.602099 0.932155 -0.487024
v 1.593629 0.950682 -0.480777
v 1.598927 0.950682 -0.491187
v 1.593629 0.938402 -0.468496
v 1.595874 0.938094 -0.481084
v 1.600170 0.938733 -0.489556
v 1.616210 0.938402 -0.498144
v 1.616210 0.927991 -0.491187
v 1.606857 0.950682 -0.498144
v 1.606622 0.938094 -0.495196
v 1.607109 0.929623 -0.489556
v 1.616210 1.068489 -0.468496
v 1.616210 1.036398 -0.500587
v 1.591769 1.036398 -0.468496
v 1.616210 1.066046 -0.480777
v 1.616210 1.059090 -0.491187
v 1.606857 1.066046 -0.468496
v 1.606622 1.063098 -0.481084
v 1.607109 1.057458 -0.489556
v 1.602099 1.054926 -0.487024
v 1.606857 1.036398 -0.498144
v 1.598927 1.036398 -0.491187
v 1.616210 1.048679 -0.498144
v 1.606622 1.048987 -0.495196
v 1.600170 1.048348 -0.489556
v 1.593629 1.048679 -0.468496
v 1.598927 1.059090 -0.468496
v 1.593629 1.036398 -0.480777
v 1.595874 1.048987 -0.481084
v 1.600170 1.057458 -0.480446
v 3.090613 0.918592 0.950005
v 3.115054 0.950682 0.950005
v 3.090613 0.950682 0.982095
v 3.099966 0.921035 0.950005
v 3.107895 0.927991 0.950005
v 3.090613 0.921035 0.962285
v 3.100200 0.923983 0.962593
v 3.106652 0.929623 0.961954
v 3.104724 0.932155 0.968532
v 3.113194 0.950682 0.962285
v 3.107895 0.950682 0.972696
v 3.113194 0.938402 0.950005
v 3.110948 0.938094 0.962593
v 3.106652 0.938733 0.971064
v 3.090613 0.938402 0.979652
v 3.090613 0.927991 0.972696
v 3.099966 0.950682 0.979652
v 3.100200 0.938094 0.976704
v 3.099714 0.929623 0.971064
v 3.090613 1.068489 0.950005
v 3.090613 1.036398 0.982095
v 3.115054 1.036398 0.950005
v 3.090613 1.066046 0.962285
v 3.090613 1.059090 0.972696
v 3.099966 1.066046 0.950005
v 3.100200 1.063098 0.962593
v 3.099714 1.057458 0.971064
v 3.104724 1.054926 0.968532
v 3.099966 1.036398 0.979652
v 3.107895 1.036398 0.972696
v 3.090613 1.048679 0.979652
v 3.100200 1.048987 0.976704
v 3.106652 1.048348 0.971064
v 3.113194 1.048679 0.950005
v 3.107895 1.059090 0.950005
v 3.113194 1.036398 0.962285
v 3.110948 1.048987 0.962593
v 3.106652 1.057458 0.961954
v 3.090613 0.918592 -0.468496
v 3.090613 0.950682 -0.500587
v 3.115054 0.950682 -0.468496
v 3.090613 0.921035 -0.480777
v 3.090613 0.927991 -0.491187
v 3.099966 0.921035 -0.468496
v 3.100200 0.923983 -0.481084
v 3.099714 0.929623 -0.489556
v 3.104724 0.932155 -0.487024
v 3.099966 0.950682 -0.498144
v 3.107895 0.950682 -0.491187
v 3.090613 0.938402 -0.498144
v 3.100200 0.938094 -0.495196
v 3.106652 0.938733 -0.489556
v 3.113194 0.938402 -0.468496
v 3.107895 0.927991 -0.468496
v 3.113194 0.950682 -0.480777
v 3.110948 0.938094 -0.481084
v 3.106652 0.929623 -0.480446
v 3.090613 1.068489 -0.468496
v 3.115054 1.036398 -0.468496
v 3.090613 1.036398 -0.500587
v 3.099966 1.066046 -0.468496
v 3.107895 1.059090 -0.468496
v 3.090613 1.066046 -0.480777
v 3.100200 1.063098 -0.481084
v 3.106652 1.057458 -0.480446
v 3.104724 1.054926 -0.487024
v 3.113194 1.036398 -0.480777
v 3.107895 1.036398 -0.491187
v 3.113194 1.048679 -0.468496
v 3.110948 1.048987 -0.481084
v 3.106652 1.048348 -0.489556
v 3.090613 1.048679 -0.498144
v 3.090613 1.059090 -0.491187
v 3.099966 1.036398 -0.498144
v 3.100200 1.048987 -0.495196
v 3.099714 1.057458 -0.489556
vn -0.1301 -0.9865 0.0998
vn -0.1301 -0.0998 0.9865
vn -0.9940 -0.0773 0.0773
vn -0.1272 -0.9177 0.3763
vn -0.1192 -0.7021 0.7021
vn -0.4642 -0.8807 0.0939
vn -0.4496 -0.8200 0.3542
vn -0.4162 -0.6430 0.6429
vn -0.6796 -0.5187 0.5187
vn -0.4642 -0.0939 0.8807
vn -0.7857 -0.0795 0.6135
vn -0.1272 -0.3763 0.9177
vn -0.4496 -0.3542 0.8200
vn -0.7535 -0.2944 0.5878
vn -0.9493 -0.3047 0.0778
vn -0.7857 -0.6135 0.0795
vn -0.9493 -0.0778 0.3047
vn -0.9042 -0.3021 0.3021
vn -0.7535 -0.5878 0.2944
vn -0.1301 0.0998 0.9865
vn -0.1301 0.9865 0.0998
vn -0.9940 0.0773 0.0773
vn -0.1272 0.3763 0.9177
vn -0.1192 0.7021 0.7021
vn -0.4642 0.0939 0.8807
vn -0.4496 0.3542 0.8200
vn -0.4162 0.6429 0.6429
vn -0.6797 0.5187 0.5187
vn -0.4642 0.8807 0.0939
vn -0.7857 0.6135 0.0795
vn -0.1272 0.9177 0.3763
vn -0.4496 0.8200 0.3542
vn -0.7535 0.5878 0.2944
vn -0.9493 0.0778 0.3047
vn -0.7857 0.0795 0.6135
vn -0.9493 0.3047 0.0778
vn -0.9042 0.3021 0.3021
vn -0.7535 0.2944 0.5878
vn -0.1301 -0.9865 -0.0998
vn -0.9940 -0.0773 -0.0773
vn -0.1301 -0.0998 -0.9865
vn -0.4642 -0.8807 -0.0939
vn -0.7857 -0.6135 -0.0795
vn -0.1272 -0.9177 -0.3763
vn -0.4496 -0.8200 -0.3542
vn -0.7535 -0.5878 -0.2944
vn -0.6796 -0.5187 -0.5187
vn -0.9493 -0.0778 -0.3047
vn -0.7857 -0.0795 -0.6135
vn -0.9493 -0.3047 -0.0778
vn -0.9042 -0.3021 -0.3021
vn -0.7535 -0.2944 -0.5878
vn -0.1272 -0.3763 -0.9177
vn -0.1192 -0.7021 -0.7021
vn -0.4642 -0.0939 -0.8807
vn -0.4496 -0.3542 -0.8200
vn -0.4162 -0.6430 -0.6429
vn -0.1301 0.9865 -0.0998
vn -0.1301 0.0998 -0.9865
vn -0.9940 0.0773 -0.0773
vn -0.1272 0.9177 -0.3763
vn -0.1192 0.7021 -0.7021
vn -0.4642 0.8807 -0.0939
vn -0.4496 0.8200 -0.3542
vn -0.4162 0.6430 -0.6429
vn -0.6796 0.5187 -0.5187
vn -0.4642 0.0939 -0.8807
vn -0.7857 0.0795 -0.6135
vn -0.1272 0.3763 -0.9177
vn -0.4496 0.3542 -0.8200
vn -0.7535 0.2944 -0.5878
vn -0.9493 0.3047 -0.0778
vn -0.7857 0.6135 -0.0795
vn -0.9493 0.0778 -0.3047
vn -0.9042 0.3021 -0.3021
vn -0.7535 0.5878 -0.2944
vn 0.1301 -0.9865 0.0998
vn 0.9940 -0.0773 0.0773
vn 0.1301 -0.0998 0.9865
vn 0.4642 -0.8807 0.0939
vn 0.7857 -0.6135 0.0795
vn 0.1272 -0.9177 0.3763
vn 0.4496 -0.8200 0.3542
vn 0.7535 -0.5878 0.2944
vn 0.6796 -0.5187 0.5187
vn 0.9493 -0.0778 0.3047
vn 0.7857 -0.0795 0.6135
vn 0.9493 -0.3047 0.0778
vn 0.9042 -0.3021 0.3021
vn 0.7535 -0.2944 0.5878
vn 0.1272 -0.3763 0.9177
vn 0.1192 -0.7021 0.7021
vn 0.4642 -0.0939 0.8807
vn 0.4496 -0.3542 0.8200
vn 0.4162 -0.6430 0.6430
vn 0.1301 0.9865 0.0998
vn 0.1301 0.0998 0.9865
vn 0.9940 0.0773 0.0773
vn 0.1272 0.9177 0.3763
vn 0.1192 0.7021 0.7021
vn 0.4642 0.8807 0.0939
vn 0.4496 0.8200 0.3542
vn 0.4162 0.6429 0.6429
vn 0.6796 0.5187 0.5187
vn 0.4642 0.0939 0.8807
vn 0.7857 0.0795 0.6135
vn 0.1272 0.3763 0.9177
vn 0.4496 0.3542 0.8200
vn 0.7535 0.2944 0.5878
vn 0.9493 0.3047 0.0778
vn 0.7857 0.6135 0.0795
vn 0.9493 0.0778 0.3047
vn 0.9042 0.3021 0.3021
vn 0.7535 0.5878 0.2944
vn 0.1301 -0.9865 -0.0998
vn 0.1301 -0.0998 -0.9865
vn 0.9940 -0.0773 -0.0773
vn 0.1272 -0.9177 -0.3763
vn 0.1192 -0.7021 -0.7021
vn 0.4642 -0.8807 -0.0939
vn 0.4496 -0.8200 -0.3542
vn 0.4162 -0.6430 -0.6430
vn 0.6796 -0.5187 -0.5187
vn 0.4642 -0.0939 -0.8807
vn 0.7857 -0.0795 -0.6135
vn 0.1272 -0.3763 -0.9177
vn 0.4496 -0.3542 -0.8200
vn 0.7535 -0.2944 -0.5878
vn 0.9493 -0.3047 -0.0778
vn 0.7857 -0.6135 -0.0795
vn 0.9493 -0.0778 -0.3047
vn 0.9042 -0.3021 -0.3021
vn 0.7535 -0.5878 -0.2944
vn 0.1301 0.9865 -0.0998
vn 0.9940 0.0773 -0.0773
vn 0.1301 0.0998 -0.9865
vn 0.4642 0.8807 -0.0939
vn 0.7857 0.6135 -0.0795
vn 0.1272 0.9177 -0.3763
vn 0.4496 0.8200 -0.3542
vn 0.7535 0.5878 -0.2944
vn 0.6796 0.5187 -0.5187
vn 0.9493 0.0778 -0.3047
vn 0.7857 0.0795 -0.6135
vn 0.9493 0.3047 -0.0778
vn 0.9042 0.3021 -0.3021
vn 0.7535 0.2944 -0.5878
vn 0.1272 0.3763 -0.9177
vn 0.1192 0.7021 -0.7021
vn 0.4642 0.0939 -0.8807
vn 0.4496 0.3542 -0.8200
vn 0.4162 0.6429 -0.6429
vt 0.129011 0.745989
vt 0.129011 0.747524
vt 0.127438 0.747562
vt 0.127476 0.745989
vt 0.129011 0.750000
vt 0.127518 0.750000
vt 0.125000 0.747482
vt 0.125000 0.745989
vt 0.126695 0.750000
vt 0.428521 0.995989
vt 0.428521 0.997524
vt 0.407526 0.997562
vt 0.408039 0.995989
vt 0.428521 1.000000
vt 0.408591 1.000000
vt 0.375000 0.997482
vt 0.375000 0.995989
vt 0.397621 1.000000
vt 0.428521 0.004011
vt 0.408039 0.004011
vt 0.407526 0.002438
vt 0.428521 0.002476
vt 0.375000 0.004011
vt 0.375000 0.002518
vt 0.408591 0.000000
vt 0.428521 0.000000
vt 0.375000 0.001695
vt 0.571479 0.995989
vt 0.591961 0.995989
vt 0.592474 0.997562
vt 0.571479 0.997524
vt 0.625000 0.995989
vt 0.625000 0.997482
vt 0.591409 1.000000
vt 0.571479 1.000000
vt 0.625000 0.998305
vt 0.870989 0.745989
vt 0.872524 0.745989
vt 0.872562 0.747562
vt 0.870989 0.747524
vt 0.875000 0.745989
vt 0.875000 0.747482
vt 0.872482 0.750000
vt 0.870989 0.750000
vt 0.875000 0.748305
vt 0.571479 0.004011
vt 0.571479 0.002476
vt 0.592474 0.002438
vt 0.591961 0.004011
vt 0.571479 0.000000
vt 0.591409 0.000000
vt 0.625000 0.002518
vt 0.625000 0.004011
vt 0.602379 0.000000
vt 0.129011 0.504011
vt 0.127476 0.504011
vt 0.127438 0.502438
vt 0.129011 0.502476
vt 0.125000 0.504011
vt 0.125000 0.502518
vt 0.127518 0.500000
vt 0.129011 0.500000
vt 0.125000 0.501695
vt 0.428521 0.245989
vt 0.428521 0.247524
vt 0.407526 0.247562
vt 0.408039 0.245989
vt 0.428521 0.250000
vt 0.408591 0.250000
vt 0.375000 0.247482
vt 0.375000 0.245989
vt 0.386310 0.250848
vt 0.428521 0.254011
vt 0.408039 0.254011
vt 0.407526 0.252438
vt 0.428521 0.252476
vt 0.375000 0.254011
vt 0.375000 0.252518
vt 0.870989 0.504011
vt 0.870989 0.502476
vt 0.872562 0.502438
vt 0.872524 0.504011
vt 0.870989 0.500000
vt 0.872482 0.500000
vt 0.875000 0.502518
vt 0.875000 0.504011
vt 0.873305 0.500000
vt 0.571479 0.254011
vt 0.571479 0.252476
vt 0.592474 0.252438
vt 0.591961 0.254011
vt 0.571479 0.250000
vt 0.591409 0.250000
vt 0.625000 0.252518
vt 0.625000 0.254011
vt 0.613690 0.249152
vt 0.571479 0.245989
vt 0.591961 0.245989
vt 0.592474 0.247562
vt 0.571479 0.247524
vt 0.625000 0.245989
vt 0.625000 0.247482
vt 0.370989 0.745989
vt 0.372524 0.745989
vt 0.372562 0.747562
vt 0.370989 0.747524
vt 0.375000 0.745989
vt 0.375000 0.747482
vt 0.373741 0.751259
vt 0.372994 0.752006
vt 0.382540 0.750000
vt 0.428521 0.745989
vt 0.428521 0.747524
vt 0.407526 0.747562
vt 0.408039 0.745989
vt 0.428521 0.750000
vt 0.408591 0.750000
vt 0.428521 0.754011
vt 0.408039 0.754011
vt 0.407526 0.752438
vt 0.428521 0.752476
vt 0.629011 0.745989
vt 0.629011 0.747524
vt 0.627438 0.747562
vt 0.627476 0.745989
vt 0.627006 0.752006
vt 0.626259 0.751259
vt 0.625000 0.747482
vt 0.625000 0.745989
vt 0.618025 0.749435
vt 0.571479 0.754011
vt 0.571479 0.752476
vt 0.592474 0.752438
vt 0.591961 0.754011
vt 0.571479 0.750000
vt 0.591409 0.750000
vt 0.571479 0.745989
vt 0.591961 0.745989
vt 0.592474 0.747562
vt 0.571479 0.747524
vt 0.370989 0.504011
vt 0.370989 0.502476
vt 0.372562 0.502438
vt 0.372524 0.504011
vt 0.372994 0.497994
vt 0.373741 0.498741
vt 0.375000 0.502518
vt 0.375000 0.504011
vt 0.381975 0.500565
vt 0.428521 0.495989
vt 0.428521 0.497524
vt 0.407526 0.497562
vt 0.408039 0.495989
vt 0.428521 0.500000
vt 0.408591 0.500000
vt 0.428521 0.504011
vt 0.408039 0.504011
vt 0.407526 0.502438
vt 0.428521 0.502476
vt 0.629011 0.504011
vt 0.627476 0.504011
vt 0.627438 0.502438
vt 0.629011 0.502476
vt 0.625000 0.504011
vt 0.625000 0.502518
vt 0.626259 0.498741
vt 0.627006 0.497994
vt 0.617460 0.500000
vt 0.571479 0.504011
vt 0.571479 0.502476
vt 0.592474 0.502438
vt 0.591961 0.504011
vt 0.571479 0.500000
vt 0.591409 0.500000
vt 0.571479 0.495989
vt 0.591961 0.495989
vt 0.592474 0.497562
vt 0.571479 0.497524
s 1
usemtl 材质.001
f 1/1/1 4/2/4 7/3/7 6/4/6
f 4/2/4 5/5/5 8/6/8 7/3/7
f 6/4/6 7/3/7 19/7/19 16/8/16
f 7/3/7 8/6/8 9/9/9 19/7/19
f 2/10/2 10/11/10 13/12/13 12/13/12
f 10/11/10 11/14/11 14/15/14 13/12/13
f 12/13/12 13/12/13 8/16/8 5/17/5
f 13/12/13 14/15/14 9/18/9 8/16/8
f 3/19/3 15/20/15 18/21/18 17/22/17
f 15/20/15 16/23/16 19/24/19 18/21/18
f 17/22/17 18/21/18 14/25/14 11/26/11
f 18/21/18 19/24/19 9/27/9 14/25/14
f 20/28/20 23/29/23 26/30/26 25/31/25
f 23/29/23 24/32/24 27/33/27 26/30/26
f 25/31/25 26/30/26 38/34/38 35/35/35
f 26/30/26 27/33/27 28/36/28 38/34/38
f 21/37/21 29/38/29 32/39/32 31/40/31
f 29/38/29 30/41/30 33/42/33 32/39/32
f 31/40/31 32/39/32 27/43/27 24/44/24
f 32/39/32 33/42/33 28/45/28 27/43/27
f 22/46/22 34/47/34 37/48/37 36/49/36
f 34/47/34 35/50/35 38/51/38 37/48/37
f 36/49/36 37/48/37 33/52/33 30/53/30
f 37/48/37 38/51/38 28/54/28 33/52/33
f 39/55/39 42/56/42 45/57/45 44/58/44
f 42/56/42 43/59/43 46/60/46 45/57/45
f 44/58/44 45/57/45 57/61/57 54/62/54
f 45/57/45 46/60/46 47/63/47 57/61/57
f 40/64/40 48/65/48 51/66/51 50/67/50
f 48/65/48 49/68/49 52/69/52 51/66/51
f 50/67/50 51/66/51 46/70/46 43/71/43
f 51/66/51 52/69/52 47/72/47 46/70/46
f 41/73/41 53/74/53 56/75/56 55/76/55
f 53/74/53 54/77/54 57/78/57 56/75/56
f 55/76/55 56/75/56 52/69/52 49/68/49
f 56/75/56 57/78/57 47/72/47 52/69/52
f 58/79/58 61/80/61 64/81/64 63/82/63
f 61/80/61 62/83/62 65/84/65 64/81/64
f 63/82/63 64/81/64 76/85/76 73/86/73
f 64/81/64 65/84/65 66/87/66 76/85/76
f 59/88/59 67/89/67 70/90/70 69/91/69
f 67/89/67 68/92/68 71/93/71 70/90/70
f 69/91/69 70/90/70 65/94/65 62/95/62
f 70/90/70 71/93/71 66/96/66 65/94/65
f 60/97/60 72/98/72 75/99/75 74/100/74
f 72/98/72 73/101/73 76/102/76 75/99/75
f 74/100/74 75/99/75 71/93/71 68/92/68
f 75/99/75 76/102/76 66/96/66 71/93/71
f 77/103/77 80/104/80 83/105/83 82/106/82
f 80/104/80 81/107/81 84/108/84 83/105/83
f 82/106/82 83/105/83 95/109/95 92/110/92
f 83/105/83 84/108/84 85/111/85 95/109/95
f 78/112/78 86/113/86 89/114/89 88/115/88
f 86/113/86 87/116/87 90/117/90 89/114/89
f 88/115/88 89/114/89 84/108/84 81/107/81
f 89/114/89 90/117/90 85/111/85 84/108/84
f 79/118/79 91/119/91 94/120/94 93/121/93
f 91/119/91 92/110/92 95/109/95 94/120/94
f 93/121/93 94/120/94 90/117/90 87/116/87
f 94/120/94 95/109/95 85/111/85 90/117/90
f 96/122/96 99/123/99 102/124/102 101/125/101
f 99/123/99 100/126/100 103/127/103 102/124/102
f 101/125/101 102/124/102 114/128/114 111/129/111
f 102/124/102 103/127/103 104/130/104 114/128/114
f 97/131/97 105/132/105 108/133/108 107/134/107
f 105/132/105 106/135/106 109/136/109 108/133/108
f 107/134/107 108/133/108 103/127/103 100/126/100
f 108/133/108 109/136/109 104/130/104 103/127/103
f 98/137/98 110/138/110 113/139/113 112/140/112
f 110/138/110 111/129/111 114/128/114 113/139/113
f 112/140/112 113/139/113 109/136/109 106/135/106
f 113/139/113 114/128/114 104/130/104 109/136/109
f 115/141/115 118/142/118 121/143/121 120/144/120
f 118/142/118 119/145/119 122/146/122 121/143/121
f 120/144/120 121/143/121 133/147/133 130/148/130
f 121/143/121 122/146/122 123/149/123 133/147/133
f 116/150/116 124/151/124 127/152/127 126/153/126
f 124/151/124 125/154/125 128/155/128 127/152/127
f 126/153/126 127/152/127 122/146/122 119/145/119
f 127/152/127 128/155/128 123/149/123 122/146/122
f 117/156/117 129/157/129 132/158/132 131/159/131
f 129/157/129 130/148/130 133/147/133 132/158/132
f 131/159/131 132/158/132 128/155/128 125/154/125
f 132/158/132 133/147/133 123/149/123 128/155/128
f 134/160/134 137/161/137 140/162/140 139/163/139
f 137/161/137 138/164/138 141/165/141 140/162/140
f 139/163/139 140/162/140 152/166/152 149/167/149
f 140/162/140 141/165/141 142/168/142 152/166/152
f 135/169/135 143/170/143 146/171/146 145/172/145
f 143/170/143 144/173/144 147/174/147 146/171/146
f 145/172/145 146/171/146 141/165/141 138/164/138
f 146/171/146 147/174/147 142/168/142 141/165/141
f 136/175/136 148/176/148 151/177/151 150/178/150
f 148/176/148 149/167/149 152/166/152 151/177/151
f 150/178/150 151/177/151 147/174/147 144/173/144
f 151/177/151 152/166/152 142/168/142 147/174/147
f 39/55/39 1/1/1 6/4/6 42/56/42
f 42/56/42 6/4/6 16/8/16 43/59/43
f 43/71/43 16/23/16 15/20/15 50/67/50
f 50/67/50 15/20/15 3/19/3 40/64/40
f 2/10/2 20/28/20 25/31/25 10/11/10
f 10/11/10 25/31/25 35/35/35 11/14/11
f 11/26/11 35/50/35 34/47/34 17/22/17
f 17/22/17 34/47/34 22/46/22 3/19/3
f 21/37/21 58/79/58 63/82/63 29/38/29
f 29/38/29 63/82/63 73/86/73 30/41/30
f 30/53/30 73/101/73 72/98/72 36/49/36
f 36/49/36 72/98/72 60/97/60 22/46/22
f 59/88/59 41/73/41 55/76/55 67/89/67
f 67/89/67 55/76/55 49/68/49 68/92/68
f 68/92/68 49/68/49 48/65/48 74/100/74
f 74/100/74 48/65/48 40/64/40 60/97/60
f 115/141/115 39/55/39 44/58/44 118/142/118
f 118/142/118 44/58/44 54/62/54 119/145/119
f 119/145/119 54/77/54 53/74/53 126/153/126
f 126/153/126 53/74/53 41/73/41 116/150/116
f 58/79/58 134/160/134 139/163/139 61/80/61
f 61/80/61 139/163/139 149/167/149 62/83/62
f 62/95/62 149/167/149 148/176/148 69/91/69
f 69/91/69 148/176/148 136/175/136 59/88/59
f 135/169/135 117/156/117 131/159/131 143/170/143
f 143/170/143 131/159/131 125/154/125 144/173/144
f 144/173/144 125/154/125 124/151/124 150/178/150
f 150/178/150 124/151/124 116/150/116 136/175/136
f 77/103/77 115/141/115 120/144/120 80/104/80
f 80/104/80 120/144/120 130/148/130 81/107/81
f 81/107/81 130/148/130 129/157/129 88/115/88
f 88/115/88 129/157/129 117/156/117 78/112/78
f 134/160/134 96/122/96 101/125/101 137/161/137
f 137/161/137 101/125/101 111/129/111 138/164/138
f 138/164/138 111/129/111 110/138/110 145/172/145
f 145/172/145 110/138/110 98/137/98 135/169/135
f 97/131/97 79/118/79 93/121/93 105/132/105
f 105/132/105 93/121/93 87/116/87 106/135/106
f 106/135/106 87/116/87 86/113/86 112/140/112
f 112/140/112 86/113/86 78/112/78 98/137/98
f 1/1/1 77/103/77 82/106/82 4/2/4
f 4/2/4 82/106/82 92/110/92 5/5/5
f 5/17/5 92/110/92 91/119/91 12/13/12
f 12/13/12 91/119/91 79/118/79 2/10/2
f 96/122/96 21/37/21 31/40/31 99/123/99
f 99/123/99 31/40/31 24/44/24 100/126/100
f 100/126/100 24/32/24 23/29/23 107/134/107
f 107/134/107 23/29/23 20/28/20 97/131/97
f 39/55/39 115/141/115 77/103/77 1/1/1
f 3/19/3 22/46/22 60/97/60 40/64/40
f 79/118/79 97/131/97 20/28/20 2/10/2
f 134/160/134 58/79/58 21/37/21 96/122/96
f 41/73/41 59/88/59 136/175/136 116/150/116
f 117/156/117 135/169/135 98/137/98 78/112/78
